<?xml version="1.0" encoding="utf-8"?>
<!-- Generator: Adobe Illustrator 22.1.0, SVG Export Plug-In . SVG Version: 6.00 Build 0)  -->
<svg version="1.1" id="Layer_1" xmlns="http://www.w3.org/2000/svg" xmlns:xlink="http://www.w3.org/1999/xlink" x="0px" y="0px"
	 viewBox="0 0 512 512" style="enable-background:new 0 0 512 512;" xml:space="preserve">
<g>
	<path d="M256,256c62.1,0,112.5-50.4,112.5-112.5S318.1,31,256,31S143.5,81.4,143.5,143.5S193.9,256,256,256z M340.2,284.7
		l-42,168.2l-28.1-119.5l28.1-49.2h-84.4l28.1,49.2l-28.1,119.5l-42-168.2c-62.7,3-112.7,54.2-112.7,117.6v36.6
		c0,23.3,18.9,42.2,42.2,42.2h309.4c23.3,0,42.2-18.9,42.2-42.2v-36.6C452.9,338.9,402.9,287.6,340.2,284.7L340.2,284.7z"/>
</g>
</svg>
